<mxfile host="app.diagrams.net" agent="Mozilla/5.0 (X11; Linux x86_64) AppleWebKit/537.36 (KHTML, like Gecko) Chrome/131.0.0.0 Safari/537.36" version="25.0.3">
  <diagram name="Page-1" id="9zKfCRSYvBsHX69j1FgH">
    <mxGraphModel dx="794" dy="462" grid="1" gridSize="10" guides="1" tooltips="1" connect="1" arrows="1" fold="1" page="1" pageScale="1" pageWidth="827" pageHeight="1169" math="0" shadow="0">
      <root>
        <mxCell id="0" />
        <mxCell id="1" parent="0" />
        <mxCell id="e4BANxXLLdvi66eUv7ez-1" value="Mars" style="rounded=0;whiteSpace=wrap;html=1;" vertex="1" parent="1">
          <mxGeometry x="70" y="30" width="160" height="20" as="geometry" />
        </mxCell>
        <mxCell id="e4BANxXLLdvi66eUv7ez-2" value="01" style="rounded=0;whiteSpace=wrap;html=1;fillColor=#f5f5f5;gradientColor=#b3b3b3;strokeColor=#666666;" vertex="1" parent="1">
          <mxGeometry x="70" y="50" width="160" height="20" as="geometry" />
        </mxCell>
        <mxCell id="e4BANxXLLdvi66eUv7ez-3" value="02" style="rounded=0;whiteSpace=wrap;html=1;fillColor=#f5f5f5;gradientColor=#b3b3b3;strokeColor=#666666;" vertex="1" parent="1">
          <mxGeometry x="70" y="70" width="160" height="20" as="geometry" />
        </mxCell>
        <mxCell id="e4BANxXLLdvi66eUv7ez-4" value="03" style="rounded=0;whiteSpace=wrap;html=1;" vertex="1" parent="1">
          <mxGeometry x="70" y="90" width="160" height="20" as="geometry" />
        </mxCell>
        <mxCell id="e4BANxXLLdvi66eUv7ez-5" value="04" style="rounded=0;whiteSpace=wrap;html=1;" vertex="1" parent="1">
          <mxGeometry x="70" y="110" width="160" height="20" as="geometry" />
        </mxCell>
        <mxCell id="e4BANxXLLdvi66eUv7ez-6" value="05" style="rounded=0;whiteSpace=wrap;html=1;" vertex="1" parent="1">
          <mxGeometry x="70" y="130" width="160" height="20" as="geometry" />
        </mxCell>
        <mxCell id="e4BANxXLLdvi66eUv7ez-7" value="06" style="rounded=0;whiteSpace=wrap;html=1;fillColor=#f8cecc;gradientColor=#ea6b66;strokeColor=#b85450;" vertex="1" parent="1">
          <mxGeometry x="70" y="150" width="160" height="20" as="geometry" />
        </mxCell>
        <mxCell id="e4BANxXLLdvi66eUv7ez-8" value="07" style="rounded=0;whiteSpace=wrap;html=1;fillColor=#f8cecc;gradientColor=#ea6b66;strokeColor=#b85450;" vertex="1" parent="1">
          <mxGeometry x="70" y="170" width="160" height="20" as="geometry" />
        </mxCell>
        <mxCell id="e4BANxXLLdvi66eUv7ez-9" value="" style="rounded=0;whiteSpace=wrap;html=1;fillColor=#f5f5f5;gradientColor=#b3b3b3;strokeColor=#666666;" vertex="1" parent="1">
          <mxGeometry x="70" y="190" width="160" height="20" as="geometry" />
        </mxCell>
        <mxCell id="e4BANxXLLdvi66eUv7ez-10" value="" style="rounded=0;whiteSpace=wrap;html=1;fillColor=#f5f5f5;gradientColor=#b3b3b3;strokeColor=#666666;" vertex="1" parent="1">
          <mxGeometry x="70" y="210" width="160" height="20" as="geometry" />
        </mxCell>
        <mxCell id="e4BANxXLLdvi66eUv7ez-11" value="10&lt;div&gt;&lt;br&gt;&lt;/div&gt;" style="rounded=0;whiteSpace=wrap;html=1;fillColor=#f8cecc;gradientColor=#ea6b66;strokeColor=#b85450;" vertex="1" parent="1">
          <mxGeometry x="70" y="230" width="160" height="20" as="geometry" />
        </mxCell>
        <mxCell id="e4BANxXLLdvi66eUv7ez-12" value="11" style="rounded=0;whiteSpace=wrap;html=1;fillColor=#f8cecc;gradientColor=#ea6b66;strokeColor=#b85450;" vertex="1" parent="1">
          <mxGeometry x="70" y="250" width="160" height="20" as="geometry" />
        </mxCell>
        <mxCell id="e4BANxXLLdvi66eUv7ez-13" value="12" style="rounded=0;whiteSpace=wrap;html=1;fillColor=#d5e8d4;gradientColor=#97d077;strokeColor=#82b366;" vertex="1" parent="1">
          <mxGeometry x="70" y="270" width="160" height="20" as="geometry" />
        </mxCell>
        <mxCell id="e4BANxXLLdvi66eUv7ez-14" value="13" style="rounded=0;whiteSpace=wrap;html=1;fillColor=#d5e8d4;gradientColor=#97d077;strokeColor=#82b366;" vertex="1" parent="1">
          <mxGeometry x="70" y="290" width="160" height="20" as="geometry" />
        </mxCell>
        <mxCell id="e4BANxXLLdvi66eUv7ez-15" value="14" style="rounded=0;whiteSpace=wrap;html=1;fillColor=#d5e8d4;gradientColor=#97d077;strokeColor=#82b366;" vertex="1" parent="1">
          <mxGeometry x="70" y="310" width="160" height="20" as="geometry" />
        </mxCell>
        <mxCell id="e4BANxXLLdvi66eUv7ez-16" value="" style="rounded=0;whiteSpace=wrap;html=1;fillColor=#f5f5f5;gradientColor=#b3b3b3;strokeColor=#666666;" vertex="1" parent="1">
          <mxGeometry x="70" y="330" width="160" height="20" as="geometry" />
        </mxCell>
        <mxCell id="e4BANxXLLdvi66eUv7ez-17" value="" style="rounded=0;whiteSpace=wrap;html=1;fillColor=#f5f5f5;gradientColor=#b3b3b3;strokeColor=#666666;" vertex="1" parent="1">
          <mxGeometry x="70" y="350" width="160" height="20" as="geometry" />
        </mxCell>
        <mxCell id="e4BANxXLLdvi66eUv7ez-18" value="" style="rounded=0;whiteSpace=wrap;html=1;fillColor=#d5e8d4;gradientColor=#97d077;strokeColor=#82b366;" vertex="1" parent="1">
          <mxGeometry x="70" y="370" width="160" height="20" as="geometry" />
        </mxCell>
        <mxCell id="e4BANxXLLdvi66eUv7ez-19" value="Avril" style="rounded=0;whiteSpace=wrap;html=1;" vertex="1" parent="1">
          <mxGeometry x="230" y="30" width="160" height="20" as="geometry" />
        </mxCell>
        <mxCell id="e4BANxXLLdvi66eUv7ez-20" value="01" style="rounded=0;whiteSpace=wrap;html=1;fillColor=#f5f5f5;gradientColor=#b3b3b3;strokeColor=#666666;" vertex="1" parent="1">
          <mxGeometry x="230" y="50" width="160" height="20" as="geometry" />
        </mxCell>
        <mxCell id="e4BANxXLLdvi66eUv7ez-21" value="02" style="rounded=0;whiteSpace=wrap;html=1;fillColor=#f5f5f5;gradientColor=#b3b3b3;strokeColor=#666666;" vertex="1" parent="1">
          <mxGeometry x="230" y="70" width="160" height="20" as="geometry" />
        </mxCell>
        <mxCell id="e4BANxXLLdvi66eUv7ez-22" value="03" style="rounded=0;whiteSpace=wrap;html=1;" vertex="1" parent="1">
          <mxGeometry x="230" y="90" width="160" height="20" as="geometry" />
        </mxCell>
        <mxCell id="e4BANxXLLdvi66eUv7ez-23" value="04" style="rounded=0;whiteSpace=wrap;html=1;" vertex="1" parent="1">
          <mxGeometry x="230" y="110" width="160" height="20" as="geometry" />
        </mxCell>
        <mxCell id="e4BANxXLLdvi66eUv7ez-24" value="05" style="rounded=0;whiteSpace=wrap;html=1;" vertex="1" parent="1">
          <mxGeometry x="230" y="130" width="160" height="20" as="geometry" />
        </mxCell>
        <mxCell id="e4BANxXLLdvi66eUv7ez-25" value="06" style="rounded=0;whiteSpace=wrap;html=1;fillColor=#f8cecc;gradientColor=#ea6b66;strokeColor=#b85450;" vertex="1" parent="1">
          <mxGeometry x="230" y="150" width="160" height="20" as="geometry" />
        </mxCell>
        <mxCell id="e4BANxXLLdvi66eUv7ez-26" value="07" style="rounded=0;whiteSpace=wrap;html=1;fillColor=#f8cecc;gradientColor=#ea6b66;strokeColor=#b85450;" vertex="1" parent="1">
          <mxGeometry x="230" y="170" width="160" height="20" as="geometry" />
        </mxCell>
        <mxCell id="e4BANxXLLdvi66eUv7ez-27" value="" style="rounded=0;whiteSpace=wrap;html=1;fillColor=#f5f5f5;gradientColor=#b3b3b3;strokeColor=#666666;" vertex="1" parent="1">
          <mxGeometry x="230" y="190" width="160" height="20" as="geometry" />
        </mxCell>
        <mxCell id="e4BANxXLLdvi66eUv7ez-28" value="" style="rounded=0;whiteSpace=wrap;html=1;fillColor=#f5f5f5;gradientColor=#b3b3b3;strokeColor=#666666;" vertex="1" parent="1">
          <mxGeometry x="230" y="210" width="160" height="20" as="geometry" />
        </mxCell>
        <mxCell id="e4BANxXLLdvi66eUv7ez-29" value="10&lt;div&gt;&lt;br&gt;&lt;/div&gt;" style="rounded=0;whiteSpace=wrap;html=1;fillColor=#f8cecc;gradientColor=#ea6b66;strokeColor=#b85450;" vertex="1" parent="1">
          <mxGeometry x="230" y="230" width="160" height="20" as="geometry" />
        </mxCell>
        <mxCell id="e4BANxXLLdvi66eUv7ez-30" value="11" style="rounded=0;whiteSpace=wrap;html=1;fillColor=#f8cecc;gradientColor=#ea6b66;strokeColor=#b85450;" vertex="1" parent="1">
          <mxGeometry x="230" y="250" width="160" height="20" as="geometry" />
        </mxCell>
        <mxCell id="e4BANxXLLdvi66eUv7ez-31" value="12" style="rounded=0;whiteSpace=wrap;html=1;fillColor=#d5e8d4;gradientColor=#97d077;strokeColor=#82b366;" vertex="1" parent="1">
          <mxGeometry x="230" y="270" width="160" height="20" as="geometry" />
        </mxCell>
        <mxCell id="e4BANxXLLdvi66eUv7ez-32" value="13" style="rounded=0;whiteSpace=wrap;html=1;fillColor=#d5e8d4;gradientColor=#97d077;strokeColor=#82b366;" vertex="1" parent="1">
          <mxGeometry x="230" y="290" width="160" height="20" as="geometry" />
        </mxCell>
        <mxCell id="e4BANxXLLdvi66eUv7ez-33" value="14" style="rounded=0;whiteSpace=wrap;html=1;fillColor=#d5e8d4;gradientColor=#97d077;strokeColor=#82b366;" vertex="1" parent="1">
          <mxGeometry x="230" y="310" width="160" height="20" as="geometry" />
        </mxCell>
        <mxCell id="e4BANxXLLdvi66eUv7ez-34" value="" style="rounded=0;whiteSpace=wrap;html=1;fillColor=#f5f5f5;gradientColor=#b3b3b3;strokeColor=#666666;" vertex="1" parent="1">
          <mxGeometry x="230" y="330" width="160" height="20" as="geometry" />
        </mxCell>
        <mxCell id="e4BANxXLLdvi66eUv7ez-35" value="" style="rounded=0;whiteSpace=wrap;html=1;fillColor=#f5f5f5;gradientColor=#b3b3b3;strokeColor=#666666;" vertex="1" parent="1">
          <mxGeometry x="230" y="350" width="160" height="20" as="geometry" />
        </mxCell>
        <mxCell id="e4BANxXLLdvi66eUv7ez-36" value="" style="rounded=0;whiteSpace=wrap;html=1;fillColor=#d5e8d4;gradientColor=#97d077;strokeColor=#82b366;" vertex="1" parent="1">
          <mxGeometry x="230" y="370" width="160" height="20" as="geometry" />
        </mxCell>
        <mxCell id="e4BANxXLLdvi66eUv7ez-37" value="Mai" style="rounded=0;whiteSpace=wrap;html=1;" vertex="1" parent="1">
          <mxGeometry x="390" y="30" width="160" height="20" as="geometry" />
        </mxCell>
        <mxCell id="e4BANxXLLdvi66eUv7ez-38" value="01" style="rounded=0;whiteSpace=wrap;html=1;fillColor=#f5f5f5;gradientColor=#b3b3b3;strokeColor=#666666;" vertex="1" parent="1">
          <mxGeometry x="390" y="50" width="160" height="20" as="geometry" />
        </mxCell>
        <mxCell id="e4BANxXLLdvi66eUv7ez-39" value="02" style="rounded=0;whiteSpace=wrap;html=1;fillColor=#f5f5f5;gradientColor=#b3b3b3;strokeColor=#666666;" vertex="1" parent="1">
          <mxGeometry x="390" y="70" width="160" height="20" as="geometry" />
        </mxCell>
        <mxCell id="e4BANxXLLdvi66eUv7ez-40" value="03" style="rounded=0;whiteSpace=wrap;html=1;" vertex="1" parent="1">
          <mxGeometry x="390" y="90" width="160" height="20" as="geometry" />
        </mxCell>
        <mxCell id="e4BANxXLLdvi66eUv7ez-41" value="04" style="rounded=0;whiteSpace=wrap;html=1;" vertex="1" parent="1">
          <mxGeometry x="390" y="110" width="160" height="20" as="geometry" />
        </mxCell>
        <mxCell id="e4BANxXLLdvi66eUv7ez-42" value="05" style="rounded=0;whiteSpace=wrap;html=1;" vertex="1" parent="1">
          <mxGeometry x="390" y="130" width="160" height="20" as="geometry" />
        </mxCell>
        <mxCell id="e4BANxXLLdvi66eUv7ez-43" value="06" style="rounded=0;whiteSpace=wrap;html=1;fillColor=#f8cecc;gradientColor=#ea6b66;strokeColor=#b85450;" vertex="1" parent="1">
          <mxGeometry x="390" y="150" width="160" height="20" as="geometry" />
        </mxCell>
        <mxCell id="e4BANxXLLdvi66eUv7ez-44" value="07" style="rounded=0;whiteSpace=wrap;html=1;fillColor=#f8cecc;gradientColor=#ea6b66;strokeColor=#b85450;" vertex="1" parent="1">
          <mxGeometry x="390" y="170" width="160" height="20" as="geometry" />
        </mxCell>
        <mxCell id="e4BANxXLLdvi66eUv7ez-45" value="" style="rounded=0;whiteSpace=wrap;html=1;fillColor=#f5f5f5;gradientColor=#b3b3b3;strokeColor=#666666;" vertex="1" parent="1">
          <mxGeometry x="390" y="190" width="160" height="20" as="geometry" />
        </mxCell>
        <mxCell id="e4BANxXLLdvi66eUv7ez-46" value="" style="rounded=0;whiteSpace=wrap;html=1;fillColor=#f5f5f5;gradientColor=#b3b3b3;strokeColor=#666666;" vertex="1" parent="1">
          <mxGeometry x="390" y="210" width="160" height="20" as="geometry" />
        </mxCell>
        <mxCell id="e4BANxXLLdvi66eUv7ez-47" value="10&lt;div&gt;&lt;br&gt;&lt;/div&gt;" style="rounded=0;whiteSpace=wrap;html=1;fillColor=#f8cecc;gradientColor=#ea6b66;strokeColor=#b85450;" vertex="1" parent="1">
          <mxGeometry x="390" y="230" width="160" height="20" as="geometry" />
        </mxCell>
        <mxCell id="e4BANxXLLdvi66eUv7ez-48" value="11" style="rounded=0;whiteSpace=wrap;html=1;fillColor=#f8cecc;gradientColor=#ea6b66;strokeColor=#b85450;" vertex="1" parent="1">
          <mxGeometry x="390" y="250" width="160" height="20" as="geometry" />
        </mxCell>
        <mxCell id="e4BANxXLLdvi66eUv7ez-49" value="12" style="rounded=0;whiteSpace=wrap;html=1;fillColor=#d5e8d4;gradientColor=#97d077;strokeColor=#82b366;" vertex="1" parent="1">
          <mxGeometry x="390" y="270" width="160" height="20" as="geometry" />
        </mxCell>
        <mxCell id="e4BANxXLLdvi66eUv7ez-50" value="13" style="rounded=0;whiteSpace=wrap;html=1;fillColor=#d5e8d4;gradientColor=#97d077;strokeColor=#82b366;" vertex="1" parent="1">
          <mxGeometry x="390" y="290" width="160" height="20" as="geometry" />
        </mxCell>
        <mxCell id="e4BANxXLLdvi66eUv7ez-51" value="14" style="rounded=0;whiteSpace=wrap;html=1;fillColor=#d5e8d4;gradientColor=#97d077;strokeColor=#82b366;" vertex="1" parent="1">
          <mxGeometry x="390" y="310" width="160" height="20" as="geometry" />
        </mxCell>
        <mxCell id="e4BANxXLLdvi66eUv7ez-52" value="" style="rounded=0;whiteSpace=wrap;html=1;fillColor=#f5f5f5;gradientColor=#b3b3b3;strokeColor=#666666;" vertex="1" parent="1">
          <mxGeometry x="390" y="330" width="160" height="20" as="geometry" />
        </mxCell>
        <mxCell id="e4BANxXLLdvi66eUv7ez-53" value="" style="rounded=0;whiteSpace=wrap;html=1;fillColor=#f5f5f5;gradientColor=#b3b3b3;strokeColor=#666666;" vertex="1" parent="1">
          <mxGeometry x="390" y="350" width="160" height="20" as="geometry" />
        </mxCell>
        <mxCell id="e4BANxXLLdvi66eUv7ez-54" value="" style="rounded=0;whiteSpace=wrap;html=1;fillColor=#d5e8d4;gradientColor=#97d077;strokeColor=#82b366;" vertex="1" parent="1">
          <mxGeometry x="390" y="370" width="160" height="20" as="geometry" />
        </mxCell>
        <mxCell id="e4BANxXLLdvi66eUv7ez-55" value="Juin" style="rounded=0;whiteSpace=wrap;html=1;" vertex="1" parent="1">
          <mxGeometry x="550" y="30" width="160" height="20" as="geometry" />
        </mxCell>
        <mxCell id="e4BANxXLLdvi66eUv7ez-56" value="01" style="rounded=0;whiteSpace=wrap;html=1;fillColor=#f5f5f5;gradientColor=#b3b3b3;strokeColor=#666666;" vertex="1" parent="1">
          <mxGeometry x="550" y="50" width="160" height="20" as="geometry" />
        </mxCell>
        <mxCell id="e4BANxXLLdvi66eUv7ez-57" value="02" style="rounded=0;whiteSpace=wrap;html=1;fillColor=#f5f5f5;gradientColor=#b3b3b3;strokeColor=#666666;" vertex="1" parent="1">
          <mxGeometry x="550" y="70" width="160" height="20" as="geometry" />
        </mxCell>
        <mxCell id="e4BANxXLLdvi66eUv7ez-58" value="03" style="rounded=0;whiteSpace=wrap;html=1;" vertex="1" parent="1">
          <mxGeometry x="550" y="90" width="160" height="20" as="geometry" />
        </mxCell>
        <mxCell id="e4BANxXLLdvi66eUv7ez-59" value="04" style="rounded=0;whiteSpace=wrap;html=1;" vertex="1" parent="1">
          <mxGeometry x="550" y="110" width="160" height="20" as="geometry" />
        </mxCell>
        <mxCell id="e4BANxXLLdvi66eUv7ez-60" value="05" style="rounded=0;whiteSpace=wrap;html=1;" vertex="1" parent="1">
          <mxGeometry x="550" y="130" width="160" height="20" as="geometry" />
        </mxCell>
        <mxCell id="e4BANxXLLdvi66eUv7ez-61" value="06" style="rounded=0;whiteSpace=wrap;html=1;fillColor=#f8cecc;gradientColor=#ea6b66;strokeColor=#b85450;" vertex="1" parent="1">
          <mxGeometry x="550" y="150" width="160" height="20" as="geometry" />
        </mxCell>
        <mxCell id="e4BANxXLLdvi66eUv7ez-62" value="07" style="rounded=0;whiteSpace=wrap;html=1;fillColor=#f8cecc;gradientColor=#ea6b66;strokeColor=#b85450;" vertex="1" parent="1">
          <mxGeometry x="550" y="170" width="160" height="20" as="geometry" />
        </mxCell>
        <mxCell id="e4BANxXLLdvi66eUv7ez-63" value="" style="rounded=0;whiteSpace=wrap;html=1;fillColor=#f5f5f5;gradientColor=#b3b3b3;strokeColor=#666666;" vertex="1" parent="1">
          <mxGeometry x="550" y="190" width="160" height="20" as="geometry" />
        </mxCell>
        <mxCell id="e4BANxXLLdvi66eUv7ez-64" value="" style="rounded=0;whiteSpace=wrap;html=1;fillColor=#f5f5f5;gradientColor=#b3b3b3;strokeColor=#666666;" vertex="1" parent="1">
          <mxGeometry x="550" y="210" width="160" height="20" as="geometry" />
        </mxCell>
        <mxCell id="e4BANxXLLdvi66eUv7ez-65" value="10&lt;div&gt;&lt;br&gt;&lt;/div&gt;" style="rounded=0;whiteSpace=wrap;html=1;fillColor=#f8cecc;gradientColor=#ea6b66;strokeColor=#b85450;" vertex="1" parent="1">
          <mxGeometry x="550" y="230" width="160" height="20" as="geometry" />
        </mxCell>
        <mxCell id="e4BANxXLLdvi66eUv7ez-66" value="11" style="rounded=0;whiteSpace=wrap;html=1;fillColor=#f8cecc;gradientColor=#ea6b66;strokeColor=#b85450;" vertex="1" parent="1">
          <mxGeometry x="550" y="250" width="160" height="20" as="geometry" />
        </mxCell>
        <mxCell id="e4BANxXLLdvi66eUv7ez-67" value="12" style="rounded=0;whiteSpace=wrap;html=1;fillColor=#d5e8d4;gradientColor=#97d077;strokeColor=#82b366;" vertex="1" parent="1">
          <mxGeometry x="550" y="270" width="160" height="20" as="geometry" />
        </mxCell>
        <mxCell id="e4BANxXLLdvi66eUv7ez-68" value="13" style="rounded=0;whiteSpace=wrap;html=1;fillColor=#d5e8d4;gradientColor=#97d077;strokeColor=#82b366;" vertex="1" parent="1">
          <mxGeometry x="550" y="290" width="160" height="20" as="geometry" />
        </mxCell>
        <mxCell id="e4BANxXLLdvi66eUv7ez-69" value="14" style="rounded=0;whiteSpace=wrap;html=1;fillColor=#d5e8d4;gradientColor=#97d077;strokeColor=#82b366;" vertex="1" parent="1">
          <mxGeometry x="550" y="310" width="160" height="20" as="geometry" />
        </mxCell>
        <mxCell id="e4BANxXLLdvi66eUv7ez-70" value="" style="rounded=0;whiteSpace=wrap;html=1;fillColor=#f5f5f5;gradientColor=#b3b3b3;strokeColor=#666666;" vertex="1" parent="1">
          <mxGeometry x="550" y="330" width="160" height="20" as="geometry" />
        </mxCell>
        <mxCell id="e4BANxXLLdvi66eUv7ez-71" value="" style="rounded=0;whiteSpace=wrap;html=1;fillColor=#f5f5f5;gradientColor=#b3b3b3;strokeColor=#666666;" vertex="1" parent="1">
          <mxGeometry x="550" y="350" width="160" height="20" as="geometry" />
        </mxCell>
        <mxCell id="e4BANxXLLdvi66eUv7ez-72" value="" style="rounded=0;whiteSpace=wrap;html=1;fillColor=#d5e8d4;gradientColor=#97d077;strokeColor=#82b366;" vertex="1" parent="1">
          <mxGeometry x="550" y="370" width="160" height="20" as="geometry" />
        </mxCell>
      </root>
    </mxGraphModel>
  </diagram>
</mxfile>
